<svg xmlns="http://www.w3.org/2000/svg" width="118.903" height="133.502" viewBox="0 0 118.903 133.502">
  <path id="Subtraction_2" data-name="Subtraction 2" d="M1886.042,100.5h-25.99a2.211,2.211,0,0,1-.6-1.518,13.343,13.343,0,0,1,13.327-13.329h61.29V58.306c-4.863,1.447-9.949,1.569-16.388,1.725h-.009l-.063,0c-.93.022-2.036.049-3.191.082a138.96,138.96,0,0,1-19.044,13.247,2.222,2.222,0,0,1-3.034-3.034,139.121,139.121,0,0,1,13.245-19.043c.03-1.011.054-2,.075-2.872l.008-.346V48.01c.307-12.663.492-20.306,11-30.809a65.291,65.291,0,0,1,17.4-12.39V-15.333a13.237,13.237,0,0,0-13.221-13.224H1850.5V-33h70.346a17.687,17.687,0,0,1,17.666,17.668V2.813c1.595-.653,3.1-1.212,4.585-1.712a2.216,2.216,0,0,1,2.813,1.4,2.221,2.221,0,0,1-1.4,2.814,62.737,62.737,0,0,0-24.7,15.029c-8.79,8.789-9.351,14.837-9.642,25.643,1.78-1.966,3.6-3.88,5.411-5.69a144.787,144.787,0,0,1,30.03-23.239,2.223,2.223,0,0,1,3.034,3.035A144.705,144.705,0,0,1,1925.4,50.124c-1.82,1.821-3.733,3.641-5.688,5.41,10.8-.289,16.847-.848,25.64-9.643a59.844,59.844,0,0,0,5.785-6.721L1943.9,37.9a2.223,2.223,0,0,1-.747-4.1l.241-.141a43.716,43.716,0,0,0,20.932-32.316,91.292,91.292,0,0,0-11.489,1.7,2.2,2.2,0,0,1-.472.05,2.233,2.233,0,0,1-2.17-1.753,2.222,2.222,0,0,1,1.7-2.641,96.8,96.8,0,0,1,14.729-1.971c.039,0,.082,0,.132,0a2.213,2.213,0,0,1,1.551.63,2.229,2.229,0,0,1,.669,1.666c0,.093-.009.188-.016.283l-.005.072a47.763,47.763,0,0,1-18.857,35.109l5.229.92a2.222,2.222,0,0,1,1.474,3.406,64.372,64.372,0,0,1-8.311,10.232,38.751,38.751,0,0,1-9.988,7.522v29.1h17.563A13.345,13.345,0,0,1,1969.4,98.981c0,.5-.022,1.015-.065,1.517h-4.466a13.367,13.367,0,0,0,.087-1.518,8.894,8.894,0,0,0-8.884-8.884H1882.7a13.3,13.3,0,0,1,3.4,8.884c0,.506-.021,1.016-.064,1.518Zm-13.265-10.4a8.887,8.887,0,0,0-8.6,6.661h17.205A8.884,8.884,0,0,0,1872.778,90.1ZM1939.7,26h0a148.63,148.63,0,0,0-38.427,38.427,145.027,145.027,0,0,0,20.984-17.443A145,145,0,0,0,1939.7,26Zm-84.4,74.5h-4.467c-.043-.506-.065-1.017-.065-1.518V74.847a2.223,2.223,0,1,1,4.445,0V98.981a13.353,13.353,0,0,0,.087,1.517Zm-2.31-32.321a2.224,2.224,0,0,1-2.222-2.221V-2.005h-.271V-6.45h.271v-6.661h-.271v-4.445h.085c-.021-.125-.048-.268-.085-.45v-9.325a17.593,17.593,0,0,1,4.716,12V65.957A2.225,2.225,0,0,1,1852.993,68.179Zm48.324-30.429c-3.907,0-5.926-2-7.548-3.605-1.411-1.4-2.343-2.321-4.422-2.321s-3.011.923-4.422,2.32c-1.623,1.606-3.644,3.606-7.549,3.606s-5.925-2-7.546-3.605c-1.41-1.4-2.341-2.32-4.422-2.32a2.223,2.223,0,1,1,0-4.445c3.906,0,5.925,2,7.547,3.6,1.412,1.4,2.345,2.321,4.422,2.321s3.011-.922,4.421-2.318c1.624-1.607,3.646-3.607,7.55-3.607s5.926,2,7.549,3.607l.007.007c1.408,1.392,2.337,2.312,4.408,2.312h.006a2.223,2.223,0,1,1,0,4.445Zm0-17.284c-3.908,0-5.927-2-7.549-3.607-1.411-1.4-2.342-2.319-4.421-2.319s-3.01.922-4.421,2.318c-1.623,1.607-3.642,3.607-7.549,3.607s-5.927-2-7.548-3.607c-1.411-1.4-2.344-2.318-4.421-2.318a2.223,2.223,0,1,1,0-4.445c3.9,0,5.924,2,7.547,3.6,1.412,1.4,2.344,2.322,4.422,2.322s3.012-.923,4.422-2.32c1.623-1.606,3.644-3.605,7.548-3.605s5.922,2,7.545,3.6l0,0c1.409,1.4,2.34,2.32,4.421,2.32s3.012-.923,4.422-2.32l0,0c1.623-1.6,3.644-3.6,7.545-3.6a2.223,2.223,0,0,1,0,4.445c-2.078,0-3.009.922-4.418,2.317l0,0C1907.243,18.467,1905.224,20.466,1901.317,20.466Zm23.942-17.284c-3.906,0-5.925-2-7.547-3.6-1.413-1.4-2.346-2.322-4.423-2.322s-3.009.922-4.418,2.317l0,0c-1.622,1.606-3.641,3.6-7.549,3.6s-5.925-2-7.547-3.6l0,0c-1.41-1.4-2.341-2.318-4.419-2.318s-3.011.923-4.42,2.32c-1.624,1.606-3.644,3.606-7.55,3.606s-5.926-2-7.548-3.6c-1.411-1.4-2.343-2.321-4.421-2.321a2.225,2.225,0,0,1-2.223-2.223,2.225,2.225,0,0,1,2.223-2.222c3.9,0,5.923,2,7.546,3.6,1.412,1.4,2.345,2.321,4.423,2.321s3.012-.923,4.422-2.32c1.623-1.606,3.644-3.605,7.548-3.605s5.922,2,7.545,3.6l0,0c1.409,1.4,2.34,2.32,4.421,2.32s3.012-.923,4.422-2.32l0,0c1.623-1.6,3.644-3.6,7.545-3.6s5.922,2,7.545,3.6l0,0c1.41,1.4,2.341,2.32,4.422,2.32a2.223,2.223,0,1,1,0,4.445Z" transform="translate(-1850.5 33.001)" fill="#fff" opacity="0.1"/>
</svg>
