<svg xmlns="http://www.w3.org/2000/svg" width="132.502" height="132.5" viewBox="0 0 132.502 132.5">
  <path id="Subtraction_4" data-name="Subtraction 4" d="M1975.9,105.779H1906a13.806,13.806,0,0,1-8.5-8.5v-69.9a2.6,2.6,0,0,1,4.725,2.04,8.56,8.56,0,0,0-.268,2.134V92.794a8.539,8.539,0,0,0,8.529,8.529h61.239a8.578,8.578,0,0,0,2.135-.268,2.6,2.6,0,0,1,2.042,4.724Zm6.609-7.6a2.607,2.607,0,0,1-2.525-3.254,8.558,8.558,0,0,0,.268-2.133V31.555a8.539,8.539,0,0,0-8.529-8.53h-61.239a8.577,8.577,0,0,0-2.135.269,2.6,2.6,0,1,1-1.3-5.045,13.8,13.8,0,0,1,3.433-.433h5.746V9.962a5.709,5.709,0,0,0-1.683-4.063l-17.05-17.05V-25.828a8.139,8.139,0,0,1,2.063,1.5,8.168,8.168,0,0,1,1.535,9.409l17.134,17.134a10.88,10.88,0,0,1,3.209,7.746v7.854h5.925V6.5a2.6,2.6,0,0,1,5.209,0V17.816h5.926V-24.116a2.607,2.607,0,0,1,2.6-2.6,2.608,2.608,0,0,1,2.6,2.6V17.816h5.926V6.5a2.6,2.6,0,0,1,5.209,0V17.816h5.926V-5.239a8.171,8.171,0,0,1-5.567-7.744,8.18,8.18,0,0,1,8.171-8.171,8.181,8.181,0,0,1,8.172,8.171,8.17,8.17,0,0,1-5.567,7.744V17.816h5.746a13.754,13.754,0,0,1,13.739,13.738V37.3h7.854a5.706,5.706,0,0,0,4.063-1.683L2014.51,18.49a8.163,8.163,0,1,1,3.683,3.684L2001.065,39.3a10.883,10.883,0,0,1-7.746,3.208h-7.855v5.926h11.314a2.6,2.6,0,1,1,0,5.208h-11.314V59.57H2027.4a2.6,2.6,0,1,1,0,5.208h-41.933V70.7h11.314a2.6,2.6,0,0,1,0,5.208h-11.314v5.926h23.055a8.171,8.171,0,1,1,0,5.209h-23.055v5.746a13.775,13.775,0,0,1-.433,3.43A2.6,2.6,0,0,1,1982.51,98.18Zm33.752-16.7a2.962,2.962,0,1,0,2.963,2.962A2.966,2.966,0,0,0,2016.262,81.481Zm5.567-69.59a2.964,2.964,0,1,0,2.094.868A2.944,2.944,0,0,0,2021.829,11.891Zm-58.456-27.836a2.966,2.966,0,0,0-2.963,2.963,2.966,2.966,0,0,0,2.963,2.963,2.966,2.966,0,0,0,2.963-2.963A2.966,2.966,0,0,0,1963.373-15.945ZM1950.5,92.615a12.7,12.7,0,0,0-18.788,0c-6.617,0-12-4.915-12-10.956v-.006a13.427,13.427,0,0,1-6.262-11.128,12.833,12.833,0,0,1,2.743-7.9,11.415,11.415,0,0,1-.009-14.835,13.775,13.775,0,0,1,6.916-4.4,8.937,8.937,0,0,1-.256-2.1c0-5.273,4.681-9.563,10.434-9.563a11.05,11.05,0,0,0,15.657,0c5.753,0,10.433,4.29,10.433,9.563a8.934,8.934,0,0,1-.256,2.1,13.78,13.78,0,0,1,6.917,4.4,11.524,11.524,0,0,1,2.734,7.424,11.689,11.689,0,0,1-3.622,8.35,11.691,11.691,0,0,1,3.622,8.351,11.5,11.5,0,0,1-1.693,5.959,12.993,12.993,0,0,1-4.594,4.46C1962.088,88.1,1956.828,92.615,1950.5,92.615Zm0-38.612a2.6,2.6,0,1,1,0,5.209c-3.744,0-6.79,2.577-6.79,5.746v16.7c0,3.169,3.046,5.746,6.79,5.746s6.791-2.578,6.791-5.746a5.908,5.908,0,0,0-4.44-5.391,2.6,2.6,0,1,1,1.561-4.97,11.636,11.636,0,0,1,6.846,5.514,6.617,6.617,0,0,0,2.295-4.9,6.947,6.947,0,0,0-4.008-6.047,2.6,2.6,0,0,1,0-4.607,6.949,6.949,0,0,0,4.008-6.047c0-3.906-3.72-7.107-8.292-7.137l-.028,0-.042,0-.049,0h-.026a9.413,9.413,0,0,0-3.6.728,2.6,2.6,0,1,1-2.024-4.8,14.457,14.457,0,0,1,4.274-1.072,3.663,3.663,0,0,0,.391-1.639c0-2.4-2.344-4.355-5.224-4.355s-5.224,1.954-5.224,4.355a2.6,2.6,0,0,1-5.209,0c0-2.4-2.344-4.355-5.224-4.355s-5.224,1.954-5.224,4.355a3.872,3.872,0,0,0,.952,2.5l0,0c.047.057.09.116.126.166l.017.023.018.023c.014.02.026.042.039.063l.019.032a2.6,2.6,0,0,1-2.21,3.974l-.041,0-.028,0c-4.571.031-8.291,3.232-8.292,7.137a6.281,6.281,0,0,0,1.421,3.936,15.855,15.855,0,0,1,4.778-1.946,2.616,2.616,0,0,1,.585-.067,2.6,2.6,0,0,1,.579,5.143c-4.336,1-7.365,4.385-7.365,8.244a7.909,7.909,0,0,0,2.6,5.741,11.106,11.106,0,0,1,1.608-2.019,2.6,2.6,0,0,1,3.671,3.695,5.25,5.25,0,0,0-1.621,3.717c0,3.169,3.046,5.747,6.79,5.747s6.791-2.578,6.791-5.747V76.092a5.908,5.908,0,0,0-4.439-5.391,2.6,2.6,0,1,1,1.562-4.969,12.437,12.437,0,0,1,2.877,1.332V52.606a2.6,2.6,0,1,1,5.208,0v3.326A12.73,12.73,0,0,1,1950.5,54Z" transform="translate(-1897.5 26.721)" fill="#fff" opacity="0.1"/>
</svg>
