<svg xmlns="http://www.w3.org/2000/svg" width="132.498" height="132.501" viewBox="0 0 132.498 132.501">
  <path id="Subtraction_3" data-name="Subtraction 3" d="M1977,99.5h-4.666V76.668a2.336,2.336,0,0,1,2.334-2.334h18.666a2.336,2.336,0,0,1,2.334,2.334V99.5H1991V79h-14V99.5Zm-9.333,0H1963V48.668h-14V99.5h-4.667V46.335A2.336,2.336,0,0,1,1946.667,44h18.666a2.336,2.336,0,0,1,2.334,2.334V99.5Zm-28,0H1935V60.334h-14V99.5h-4.667V58a2.336,2.336,0,0,1,2.334-2.334h18.666A2.336,2.336,0,0,1,1939.667,58V99.5Zm-28,0H1907V32.334h-14V99.5h-4.667V30a2.336,2.336,0,0,1,2.334-2.334h18.666A2.336,2.336,0,0,1,1911.667,30V99.5ZM1879,99.5V67.334h-13.5V62.668h15.833A2.336,2.336,0,0,1,1883.667,65V99.5H1879Zm-9.33-50.833H1865.5V44h2.578l29.751-75.521A2.32,2.32,0,0,1,1899.966-33h.057a2.292,2.292,0,0,1,2.121,1.416l26.3,61.373,25.61-38.416a2.447,2.447,0,0,1,.493-.494A2.4,2.4,0,0,1,1956-9.6a2.4,2.4,0,0,1,1.944.974l17.974,26.961H1984V13.668a2.332,2.332,0,0,1,3.595-1.962l9.334,6a2.331,2.331,0,0,1,.257,3.732l-9.333,8a2.333,2.333,0,0,1-3.852-1.77V23h-9.333a2.326,2.326,0,0,1-1.941-1.04L1956-3.126l-26.059,39.088a2.332,2.332,0,0,1-4.086-.376l-25.764-60.115-28.255,71.717A2.315,2.315,0,0,1,1869.669,48.668Zm119-30.724V22.6l3.1-2.659-3.1-1.993Z" transform="translate(-1865.5 32.999)" fill="#fff" opacity="0.1"/>
</svg>
